<mxfile host="app.diagrams.net" modified="2023-08-03T09:37:44.034Z" agent="Mozilla/5.0 (X11; Linux x86_64; rv:109.0) Gecko/20100101 Firefox/115.0" version="21.6.5" etag="q5JpUn-yFa6NijxNXcFN" type="github">
  <diagram name="Page-1" id="IKcA4b08jLjQv_rLaikq">
    <mxGraphModel>
      <root>
        <mxCell id="0" />
        <mxCell id="1" parent="0" />
      </root>
    </mxGraphModel>
  </diagram>
</mxfile>
